# xmcd
# 
# Track frame offsets:
#     150
#     9501
#     21939
#     31429
#     41224
#     53000
#     61437
#     74565
#     83636
#     94772
#     105106
#     116843
#     127031
#     137867
#     150704
#     163179
#     173898
#     185417
#     195136
#     205759
#     214546
#     226882
#     235644
#     247645
#     258640
#     270902
#     282556
#     292936
#     303298
#     312098
#     323563
#     333749
#     345034
# 
# Disc length: 4733
# 
# Revision: 1
# Processed by: cddbd v1.5.2PL0 Copyright (c) Steve Scherf et al.
# Submitted via: fre:ac v1.0.31
# 
DISCID=c4127b21
DTITLE=Eddy Arnold - Tears Broke Out On Me
DYEAR=2000
DGENRE=Country
TTITLE0=Tears Broke Out On Me
TTITLE1=Before This Day Ends
TTITLE2=A Little Heartache
TTITLE3=Chip Of The Old Block
TTITLE4=Just A Little Lovin`
TTITLE5=The Wall Came Tumbling Down
TTITLE6=Molly
TTITLE7=Sittin`By Sittin`Bull
TTITLE8=Wabash Canon Ball
TTITLE9=Kisses Sweeter Than Wine
TTITLE10=Little Sparrow
TTITLE11=What`s The Good
TTITLE12=I`ll Hold You In My Heart
TTITLE13=I`ll Do As Much For You Someday
TTITLE14=Yesterday Memories
TTITLE15=Lonely Balladier
TTITLE16=A Million Years Or So
TTITLE17=After Loving You
TTITLE18=She Called Me Baby
TTITLE19=Tender Touch
TTITLE20=I Met Her Today
TTITLE21=Rhinestones
TTITLE22=Sweet Adorable You
TTITLE23=I Thank My Lucky Stars
TTITLE24=You Were Mine For Awhile
TTITLE25=Little Swallow
TTITLE26=Real Love
TTITLE27=My Woman
TTITLE28=I Don`t Cry No More
TTITLE29=Jealous Hearted Me
TTITLE30=Did It Rain
TTITLE31=The Dark At The Top Of The Stairs
TTITLE32=The Worst Night Of My Life
EXTD=BCD 17205 AH
EXTT0=
EXTT1=
EXTT2=
EXTT3=
EXTT4=
EXTT5=
EXTT6=
EXTT7=
EXTT8=
EXTT9=
EXTT10=
EXTT11=
EXTT12=
EXTT13=
EXTT14=
EXTT15=
EXTT16=
EXTT17=
EXTT18=
EXTT19=
EXTT20=
EXTT21=
EXTT22=
EXTT23=
EXTT24=
EXTT25=
EXTT26=
EXTT27=
EXTT28=
EXTT29=
EXTT30=
EXTT31=
EXTT32=
PLAYORDER=
